<?xml version="1.0" encoding="utf-8" standalone="no"?>
<!DOCTYPE svg PUBLIC "-//W3C//DTD SVG 1.1//EN"
  "http://www.w3.org/Graphics/SVG/1.1/DTD/svg11.dtd">
<svg xmlns:xlink="http://www.w3.org/1999/xlink" width="864pt" height="432pt" viewBox="0 0 864 432" xmlns="http://www.w3.org/2000/svg" version="1.1">
 <metadata>
  <rdf:RDF xmlns:dc="http://purl.org/dc/elements/1.1/" xmlns:cc="http://creativecommons.org/ns#" xmlns:rdf="http://www.w3.org/1999/02/22-rdf-syntax-ns#">
   <cc:Work>
    <dc:type rdf:resource="http://purl.org/dc/dcmitype/StillImage"/>
    <dc:date>2023-05-08T17:28:08.536031</dc:date>
    <dc:format>image/svg+xml</dc:format>
    <dc:creator>
     <cc:Agent>
      <dc:title>Matplotlib v3.7.1, https://matplotlib.org/</dc:title>
     </cc:Agent>
    </dc:creator>
   </cc:Work>
  </rdf:RDF>
 </metadata>
 <defs>
  <style type="text/css">*{stroke-linejoin: round; stroke-linecap: butt}</style>
 </defs>
 <g id="figure_1">
  <g id="patch_1">
   <path d="M 0 432 
L 864 432 
L 864 0 
L 0 0 
z
" style="fill: #ffffff"/>
  </g>
  <g id="axes_1">
   <g id="patch_2">
    <path d="M 108 384.48 
L 777.6 384.48 
L 777.6 51.84 
L 108 51.84 
z
" style="fill: #ffffff"/>
   </g>
   <g id="matplotlib.axis_1">
    <g id="xtick_1">
     <g id="line2d_1">
      <defs>
       <path id="m067ef2b6af" d="M 0 0 
L 0 3.5 
" style="stroke: #000000; stroke-width: 0.8"/>
      </defs>
      <g>
       <use xlink:href="#m067ef2b6af" x="138.436364" y="384.48" style="stroke: #000000; stroke-width: 0.8"/>
      </g>
     </g>
     <g id="text_1">
      <!-- 2022-01 -->
      <g transform="translate(117.544957 399.078438) scale(0.1 -0.1)">
       <defs>
        <path id="DejaVuSans-32" d="M 1228 531 
L 3431 531 
L 3431 0 
L 469 0 
L 469 531 
Q 828 903 1448 1529 
Q 2069 2156 2228 2338 
Q 2531 2678 2651 2914 
Q 2772 3150 2772 3378 
Q 2772 3750 2511 3984 
Q 2250 4219 1831 4219 
Q 1534 4219 1204 4116 
Q 875 4013 500 3803 
L 500 4441 
Q 881 4594 1212 4672 
Q 1544 4750 1819 4750 
Q 2544 4750 2975 4387 
Q 3406 4025 3406 3419 
Q 3406 3131 3298 2873 
Q 3191 2616 2906 2266 
Q 2828 2175 2409 1742 
Q 1991 1309 1228 531 
z
" transform="scale(0.015625)"/>
        <path id="DejaVuSans-30" d="M 2034 4250 
Q 1547 4250 1301 3770 
Q 1056 3291 1056 2328 
Q 1056 1369 1301 889 
Q 1547 409 2034 409 
Q 2525 409 2770 889 
Q 3016 1369 3016 2328 
Q 3016 3291 2770 3770 
Q 2525 4250 2034 4250 
z
M 2034 4750 
Q 2819 4750 3233 4129 
Q 3647 3509 3647 2328 
Q 3647 1150 3233 529 
Q 2819 -91 2034 -91 
Q 1250 -91 836 529 
Q 422 1150 422 2328 
Q 422 3509 836 4129 
Q 1250 4750 2034 4750 
z
" transform="scale(0.015625)"/>
        <path id="DejaVuSans-2d" d="M 313 2009 
L 1997 2009 
L 1997 1497 
L 313 1497 
L 313 2009 
z
" transform="scale(0.015625)"/>
        <path id="DejaVuSans-31" d="M 794 531 
L 1825 531 
L 1825 4091 
L 703 3866 
L 703 4441 
L 1819 4666 
L 2450 4666 
L 2450 531 
L 3481 531 
L 3481 0 
L 794 0 
L 794 531 
z
" transform="scale(0.015625)"/>
       </defs>
       <use xlink:href="#DejaVuSans-32"/>
       <use xlink:href="#DejaVuSans-30" x="63.623047"/>
       <use xlink:href="#DejaVuSans-32" x="127.246094"/>
       <use xlink:href="#DejaVuSans-32" x="190.869141"/>
       <use xlink:href="#DejaVuSans-2d" x="254.492188"/>
       <use xlink:href="#DejaVuSans-30" x="290.576172"/>
       <use xlink:href="#DejaVuSans-31" x="354.199219"/>
      </g>
     </g>
    </g>
    <g id="xtick_2">
     <g id="line2d_2">
      <g>
       <use xlink:href="#m067ef2b6af" x="237.103696" y="384.48" style="stroke: #000000; stroke-width: 0.8"/>
      </g>
     </g>
     <g id="text_2">
      <!-- 2022-03 -->
      <g transform="translate(216.21229 399.078438) scale(0.1 -0.1)">
       <defs>
        <path id="DejaVuSans-33" d="M 2597 2516 
Q 3050 2419 3304 2112 
Q 3559 1806 3559 1356 
Q 3559 666 3084 287 
Q 2609 -91 1734 -91 
Q 1441 -91 1130 -33 
Q 819 25 488 141 
L 488 750 
Q 750 597 1062 519 
Q 1375 441 1716 441 
Q 2309 441 2620 675 
Q 2931 909 2931 1356 
Q 2931 1769 2642 2001 
Q 2353 2234 1838 2234 
L 1294 2234 
L 1294 2753 
L 1863 2753 
Q 2328 2753 2575 2939 
Q 2822 3125 2822 3475 
Q 2822 3834 2567 4026 
Q 2313 4219 1838 4219 
Q 1578 4219 1281 4162 
Q 984 4106 628 3988 
L 628 4550 
Q 988 4650 1302 4700 
Q 1616 4750 1894 4750 
Q 2613 4750 3031 4423 
Q 3450 4097 3450 3541 
Q 3450 3153 3228 2886 
Q 3006 2619 2597 2516 
z
" transform="scale(0.015625)"/>
       </defs>
       <use xlink:href="#DejaVuSans-32"/>
       <use xlink:href="#DejaVuSans-30" x="63.623047"/>
       <use xlink:href="#DejaVuSans-32" x="127.246094"/>
       <use xlink:href="#DejaVuSans-32" x="190.869141"/>
       <use xlink:href="#DejaVuSans-2d" x="254.492188"/>
       <use xlink:href="#DejaVuSans-30" x="290.576172"/>
       <use xlink:href="#DejaVuSans-33" x="354.199219"/>
      </g>
     </g>
    </g>
    <g id="xtick_3">
     <g id="line2d_3">
      <g>
       <use xlink:href="#m067ef2b6af" x="339.115684" y="384.48" style="stroke: #000000; stroke-width: 0.8"/>
      </g>
     </g>
     <g id="text_3">
      <!-- 2022-05 -->
      <g transform="translate(318.224278 399.078438) scale(0.1 -0.1)">
       <defs>
        <path id="DejaVuSans-35" d="M 691 4666 
L 3169 4666 
L 3169 4134 
L 1269 4134 
L 1269 2991 
Q 1406 3038 1543 3061 
Q 1681 3084 1819 3084 
Q 2600 3084 3056 2656 
Q 3513 2228 3513 1497 
Q 3513 744 3044 326 
Q 2575 -91 1722 -91 
Q 1428 -91 1123 -41 
Q 819 9 494 109 
L 494 744 
Q 775 591 1075 516 
Q 1375 441 1709 441 
Q 2250 441 2565 725 
Q 2881 1009 2881 1497 
Q 2881 1984 2565 2268 
Q 2250 2553 1709 2553 
Q 1456 2553 1204 2497 
Q 953 2441 691 2322 
L 691 4666 
z
" transform="scale(0.015625)"/>
       </defs>
       <use xlink:href="#DejaVuSans-32"/>
       <use xlink:href="#DejaVuSans-30" x="63.623047"/>
       <use xlink:href="#DejaVuSans-32" x="127.246094"/>
       <use xlink:href="#DejaVuSans-32" x="190.869141"/>
       <use xlink:href="#DejaVuSans-2d" x="254.492188"/>
       <use xlink:href="#DejaVuSans-30" x="290.576172"/>
       <use xlink:href="#DejaVuSans-35" x="354.199219"/>
      </g>
     </g>
    </g>
    <g id="xtick_4">
     <g id="line2d_4">
      <g>
       <use xlink:href="#m067ef2b6af" x="441.127672" y="384.48" style="stroke: #000000; stroke-width: 0.8"/>
      </g>
     </g>
     <g id="text_4">
      <!-- 2022-07 -->
      <g transform="translate(420.236266 399.078438) scale(0.1 -0.1)">
       <defs>
        <path id="DejaVuSans-37" d="M 525 4666 
L 3525 4666 
L 3525 4397 
L 1831 0 
L 1172 0 
L 2766 4134 
L 525 4134 
L 525 4666 
z
" transform="scale(0.015625)"/>
       </defs>
       <use xlink:href="#DejaVuSans-32"/>
       <use xlink:href="#DejaVuSans-30" x="63.623047"/>
       <use xlink:href="#DejaVuSans-32" x="127.246094"/>
       <use xlink:href="#DejaVuSans-32" x="190.869141"/>
       <use xlink:href="#DejaVuSans-2d" x="254.492188"/>
       <use xlink:href="#DejaVuSans-30" x="290.576172"/>
       <use xlink:href="#DejaVuSans-37" x="354.199219"/>
      </g>
     </g>
    </g>
    <g id="xtick_5">
     <g id="line2d_5">
      <g>
       <use xlink:href="#m067ef2b6af" x="544.811988" y="384.48" style="stroke: #000000; stroke-width: 0.8"/>
      </g>
     </g>
     <g id="text_5">
      <!-- 2022-09 -->
      <g transform="translate(523.920582 399.078438) scale(0.1 -0.1)">
       <defs>
        <path id="DejaVuSans-39" d="M 703 97 
L 703 672 
Q 941 559 1184 500 
Q 1428 441 1663 441 
Q 2288 441 2617 861 
Q 2947 1281 2994 2138 
Q 2813 1869 2534 1725 
Q 2256 1581 1919 1581 
Q 1219 1581 811 2004 
Q 403 2428 403 3163 
Q 403 3881 828 4315 
Q 1253 4750 1959 4750 
Q 2769 4750 3195 4129 
Q 3622 3509 3622 2328 
Q 3622 1225 3098 567 
Q 2575 -91 1691 -91 
Q 1453 -91 1209 -44 
Q 966 3 703 97 
z
M 1959 2075 
Q 2384 2075 2632 2365 
Q 2881 2656 2881 3163 
Q 2881 3666 2632 3958 
Q 2384 4250 1959 4250 
Q 1534 4250 1286 3958 
Q 1038 3666 1038 3163 
Q 1038 2656 1286 2365 
Q 1534 2075 1959 2075 
z
" transform="scale(0.015625)"/>
       </defs>
       <use xlink:href="#DejaVuSans-32"/>
       <use xlink:href="#DejaVuSans-30" x="63.623047"/>
       <use xlink:href="#DejaVuSans-32" x="127.246094"/>
       <use xlink:href="#DejaVuSans-32" x="190.869141"/>
       <use xlink:href="#DejaVuSans-2d" x="254.492188"/>
       <use xlink:href="#DejaVuSans-30" x="290.576172"/>
       <use xlink:href="#DejaVuSans-39" x="354.199219"/>
      </g>
     </g>
    </g>
    <g id="xtick_6">
     <g id="line2d_6">
      <g>
       <use xlink:href="#m067ef2b6af" x="646.823976" y="384.48" style="stroke: #000000; stroke-width: 0.8"/>
      </g>
     </g>
     <g id="text_6">
      <!-- 2022-11 -->
      <g transform="translate(625.93257 399.078438) scale(0.1 -0.1)">
       <use xlink:href="#DejaVuSans-32"/>
       <use xlink:href="#DejaVuSans-30" x="63.623047"/>
       <use xlink:href="#DejaVuSans-32" x="127.246094"/>
       <use xlink:href="#DejaVuSans-32" x="190.869141"/>
       <use xlink:href="#DejaVuSans-2d" x="254.492188"/>
       <use xlink:href="#DejaVuSans-31" x="290.576172"/>
       <use xlink:href="#DejaVuSans-31" x="354.199219"/>
      </g>
     </g>
    </g>
    <g id="xtick_7">
     <g id="line2d_7">
      <g>
       <use xlink:href="#m067ef2b6af" x="748.835964" y="384.48" style="stroke: #000000; stroke-width: 0.8"/>
      </g>
     </g>
     <g id="text_7">
      <!-- 2023-01 -->
      <g transform="translate(727.944558 399.078438) scale(0.1 -0.1)">
       <use xlink:href="#DejaVuSans-32"/>
       <use xlink:href="#DejaVuSans-30" x="63.623047"/>
       <use xlink:href="#DejaVuSans-32" x="127.246094"/>
       <use xlink:href="#DejaVuSans-33" x="190.869141"/>
       <use xlink:href="#DejaVuSans-2d" x="254.492188"/>
       <use xlink:href="#DejaVuSans-30" x="290.576172"/>
       <use xlink:href="#DejaVuSans-31" x="354.199219"/>
      </g>
     </g>
    </g>
    <g id="text_8">
     <!-- Date -->
     <g transform="translate(430.849219 412.756563) scale(0.1 -0.1)">
      <defs>
       <path id="DejaVuSans-44" d="M 1259 4147 
L 1259 519 
L 2022 519 
Q 2988 519 3436 956 
Q 3884 1394 3884 2338 
Q 3884 3275 3436 3711 
Q 2988 4147 2022 4147 
L 1259 4147 
z
M 628 4666 
L 1925 4666 
Q 3281 4666 3915 4102 
Q 4550 3538 4550 2338 
Q 4550 1131 3912 565 
Q 3275 0 1925 0 
L 628 0 
L 628 4666 
z
" transform="scale(0.015625)"/>
       <path id="DejaVuSans-61" d="M 2194 1759 
Q 1497 1759 1228 1600 
Q 959 1441 959 1056 
Q 959 750 1161 570 
Q 1363 391 1709 391 
Q 2188 391 2477 730 
Q 2766 1069 2766 1631 
L 2766 1759 
L 2194 1759 
z
M 3341 1997 
L 3341 0 
L 2766 0 
L 2766 531 
Q 2569 213 2275 61 
Q 1981 -91 1556 -91 
Q 1019 -91 701 211 
Q 384 513 384 1019 
Q 384 1609 779 1909 
Q 1175 2209 1959 2209 
L 2766 2209 
L 2766 2266 
Q 2766 2663 2505 2880 
Q 2244 3097 1772 3097 
Q 1472 3097 1187 3025 
Q 903 2953 641 2809 
L 641 3341 
Q 956 3463 1253 3523 
Q 1550 3584 1831 3584 
Q 2591 3584 2966 3190 
Q 3341 2797 3341 1997 
z
" transform="scale(0.015625)"/>
       <path id="DejaVuSans-74" d="M 1172 4494 
L 1172 3500 
L 2356 3500 
L 2356 3053 
L 1172 3053 
L 1172 1153 
Q 1172 725 1289 603 
Q 1406 481 1766 481 
L 2356 481 
L 2356 0 
L 1766 0 
Q 1100 0 847 248 
Q 594 497 594 1153 
L 594 3053 
L 172 3053 
L 172 3500 
L 594 3500 
L 594 4494 
L 1172 4494 
z
" transform="scale(0.015625)"/>
       <path id="DejaVuSans-65" d="M 3597 1894 
L 3597 1613 
L 953 1613 
Q 991 1019 1311 708 
Q 1631 397 2203 397 
Q 2534 397 2845 478 
Q 3156 559 3463 722 
L 3463 178 
Q 3153 47 2828 -22 
Q 2503 -91 2169 -91 
Q 1331 -91 842 396 
Q 353 884 353 1716 
Q 353 2575 817 3079 
Q 1281 3584 2069 3584 
Q 2775 3584 3186 3129 
Q 3597 2675 3597 1894 
z
M 3022 2063 
Q 3016 2534 2758 2815 
Q 2500 3097 2075 3097 
Q 1594 3097 1305 2825 
Q 1016 2553 972 2059 
L 3022 2063 
z
" transform="scale(0.015625)"/>
      </defs>
      <use xlink:href="#DejaVuSans-44"/>
      <use xlink:href="#DejaVuSans-61" x="77.001953"/>
      <use xlink:href="#DejaVuSans-74" x="138.28125"/>
      <use xlink:href="#DejaVuSans-65" x="177.490234"/>
     </g>
    </g>
   </g>
   <g id="matplotlib.axis_2">
    <g id="ytick_1">
     <g id="line2d_8">
      <defs>
       <path id="mdf873a0386" d="M 0 0 
L -3.5 0 
" style="stroke: #000000; stroke-width: 0.8"/>
      </defs>
      <g>
       <use xlink:href="#mdf873a0386" x="108" y="369.36" style="stroke: #000000; stroke-width: 0.8"/>
      </g>
     </g>
     <g id="text_9">
      <!-- 0 -->
      <g transform="translate(94.6375 373.159219) scale(0.1 -0.1)">
       <use xlink:href="#DejaVuSans-30"/>
      </g>
     </g>
    </g>
    <g id="ytick_2">
     <g id="line2d_9">
      <g>
       <use xlink:href="#mdf873a0386" x="108" y="301.448247" style="stroke: #000000; stroke-width: 0.8"/>
      </g>
     </g>
     <g id="text_10">
      <!-- 200000 -->
      <g transform="translate(62.825 305.247466) scale(0.1 -0.1)">
       <use xlink:href="#DejaVuSans-32"/>
       <use xlink:href="#DejaVuSans-30" x="63.623047"/>
       <use xlink:href="#DejaVuSans-30" x="127.246094"/>
       <use xlink:href="#DejaVuSans-30" x="190.869141"/>
       <use xlink:href="#DejaVuSans-30" x="254.492188"/>
       <use xlink:href="#DejaVuSans-30" x="318.115234"/>
      </g>
     </g>
    </g>
    <g id="ytick_3">
     <g id="line2d_10">
      <g>
       <use xlink:href="#mdf873a0386" x="108" y="233.536494" style="stroke: #000000; stroke-width: 0.8"/>
      </g>
     </g>
     <g id="text_11">
      <!-- 400000 -->
      <g transform="translate(62.825 237.335713) scale(0.1 -0.1)">
       <defs>
        <path id="DejaVuSans-34" d="M 2419 4116 
L 825 1625 
L 2419 1625 
L 2419 4116 
z
M 2253 4666 
L 3047 4666 
L 3047 1625 
L 3713 1625 
L 3713 1100 
L 3047 1100 
L 3047 0 
L 2419 0 
L 2419 1100 
L 313 1100 
L 313 1709 
L 2253 4666 
z
" transform="scale(0.015625)"/>
       </defs>
       <use xlink:href="#DejaVuSans-34"/>
       <use xlink:href="#DejaVuSans-30" x="63.623047"/>
       <use xlink:href="#DejaVuSans-30" x="127.246094"/>
       <use xlink:href="#DejaVuSans-30" x="190.869141"/>
       <use xlink:href="#DejaVuSans-30" x="254.492188"/>
       <use xlink:href="#DejaVuSans-30" x="318.115234"/>
      </g>
     </g>
    </g>
    <g id="ytick_4">
     <g id="line2d_11">
      <g>
       <use xlink:href="#mdf873a0386" x="108" y="165.624741" style="stroke: #000000; stroke-width: 0.8"/>
      </g>
     </g>
     <g id="text_12">
      <!-- 600000 -->
      <g transform="translate(62.825 169.42396) scale(0.1 -0.1)">
       <defs>
        <path id="DejaVuSans-36" d="M 2113 2584 
Q 1688 2584 1439 2293 
Q 1191 2003 1191 1497 
Q 1191 994 1439 701 
Q 1688 409 2113 409 
Q 2538 409 2786 701 
Q 3034 994 3034 1497 
Q 3034 2003 2786 2293 
Q 2538 2584 2113 2584 
z
M 3366 4563 
L 3366 3988 
Q 3128 4100 2886 4159 
Q 2644 4219 2406 4219 
Q 1781 4219 1451 3797 
Q 1122 3375 1075 2522 
Q 1259 2794 1537 2939 
Q 1816 3084 2150 3084 
Q 2853 3084 3261 2657 
Q 3669 2231 3669 1497 
Q 3669 778 3244 343 
Q 2819 -91 2113 -91 
Q 1303 -91 875 529 
Q 447 1150 447 2328 
Q 447 3434 972 4092 
Q 1497 4750 2381 4750 
Q 2619 4750 2861 4703 
Q 3103 4656 3366 4563 
z
" transform="scale(0.015625)"/>
       </defs>
       <use xlink:href="#DejaVuSans-36"/>
       <use xlink:href="#DejaVuSans-30" x="63.623047"/>
       <use xlink:href="#DejaVuSans-30" x="127.246094"/>
       <use xlink:href="#DejaVuSans-30" x="190.869141"/>
       <use xlink:href="#DejaVuSans-30" x="254.492188"/>
       <use xlink:href="#DejaVuSans-30" x="318.115234"/>
      </g>
     </g>
    </g>
    <g id="ytick_5">
     <g id="line2d_12">
      <g>
       <use xlink:href="#mdf873a0386" x="108" y="97.712988" style="stroke: #000000; stroke-width: 0.8"/>
      </g>
     </g>
     <g id="text_13">
      <!-- 800000 -->
      <g transform="translate(62.825 101.512207) scale(0.1 -0.1)">
       <defs>
        <path id="DejaVuSans-38" d="M 2034 2216 
Q 1584 2216 1326 1975 
Q 1069 1734 1069 1313 
Q 1069 891 1326 650 
Q 1584 409 2034 409 
Q 2484 409 2743 651 
Q 3003 894 3003 1313 
Q 3003 1734 2745 1975 
Q 2488 2216 2034 2216 
z
M 1403 2484 
Q 997 2584 770 2862 
Q 544 3141 544 3541 
Q 544 4100 942 4425 
Q 1341 4750 2034 4750 
Q 2731 4750 3128 4425 
Q 3525 4100 3525 3541 
Q 3525 3141 3298 2862 
Q 3072 2584 2669 2484 
Q 3125 2378 3379 2068 
Q 3634 1759 3634 1313 
Q 3634 634 3220 271 
Q 2806 -91 2034 -91 
Q 1263 -91 848 271 
Q 434 634 434 1313 
Q 434 1759 690 2068 
Q 947 2378 1403 2484 
z
M 1172 3481 
Q 1172 3119 1398 2916 
Q 1625 2713 2034 2713 
Q 2441 2713 2670 2916 
Q 2900 3119 2900 3481 
Q 2900 3844 2670 4047 
Q 2441 4250 2034 4250 
Q 1625 4250 1398 4047 
Q 1172 3844 1172 3481 
z
" transform="scale(0.015625)"/>
       </defs>
       <use xlink:href="#DejaVuSans-38"/>
       <use xlink:href="#DejaVuSans-30" x="63.623047"/>
       <use xlink:href="#DejaVuSans-30" x="127.246094"/>
       <use xlink:href="#DejaVuSans-30" x="190.869141"/>
       <use xlink:href="#DejaVuSans-30" x="254.492188"/>
       <use xlink:href="#DejaVuSans-30" x="318.115234"/>
      </g>
     </g>
    </g>
    <g id="text_14">
     <!-- Value -->
     <g transform="translate(56.745312 231.89125) rotate(-90) scale(0.1 -0.1)">
      <defs>
       <path id="DejaVuSans-56" d="M 1831 0 
L 50 4666 
L 709 4666 
L 2188 738 
L 3669 4666 
L 4325 4666 
L 2547 0 
L 1831 0 
z
" transform="scale(0.015625)"/>
       <path id="DejaVuSans-6c" d="M 603 4863 
L 1178 4863 
L 1178 0 
L 603 0 
L 603 4863 
z
" transform="scale(0.015625)"/>
       <path id="DejaVuSans-75" d="M 544 1381 
L 544 3500 
L 1119 3500 
L 1119 1403 
Q 1119 906 1312 657 
Q 1506 409 1894 409 
Q 2359 409 2629 706 
Q 2900 1003 2900 1516 
L 2900 3500 
L 3475 3500 
L 3475 0 
L 2900 0 
L 2900 538 
Q 2691 219 2414 64 
Q 2138 -91 1772 -91 
Q 1169 -91 856 284 
Q 544 659 544 1381 
z
M 1991 3584 
L 1991 3584 
z
" transform="scale(0.015625)"/>
      </defs>
      <use xlink:href="#DejaVuSans-56"/>
      <use xlink:href="#DejaVuSans-61" x="60.658203"/>
      <use xlink:href="#DejaVuSans-6c" x="121.9375"/>
      <use xlink:href="#DejaVuSans-75" x="149.720703"/>
      <use xlink:href="#DejaVuSans-65" x="213.099609"/>
     </g>
    </g>
   </g>
   <g id="line2d_13">
    <path d="M 138.436364 369.36 
L 148.47033 369.309066 
L 150.142657 369.193616 
L 151.814985 369.36 
L 160.176623 369.258132 
L 161.848951 369.112122 
L 163.521279 369.36 
L 166.865934 369.36 
L 168.538262 369.230968 
L 170.210589 369.36 
L 171.882917 369.132496 
L 173.555245 369.36 
L 175.227572 369.36 
L 176.8999 369.045908 
L 178.572228 369.36 
L 180.244555 369.100238 
L 181.916883 369.296842 
L 183.589211 369.158642 
L 185.261538 368.64421 
L 186.933866 369.36 
L 190.278521 369.36 
L 193.623177 369.36 
L 195.295504 367.122308 
L 196.967832 366.395652 
L 198.64016 369.36 
L 200.312488 366.064582 
L 201.984815 365.959319 
L 203.657143 365.100235 
L 205.329471 365.645227 
L 207.001798 362.239453 
L 208.674126 354.796664 
L 210.346454 369.36 
L 212.018781 355.950145 
L 213.691109 361.132152 
L 215.363437 354.040806 
L 217.035764 353.631978 
L 218.708092 354.976291 
L 220.38042 349.411262 
L 222.052747 369.36 
L 223.725075 342.439442 
L 225.397403 357.534526 
L 227.06973 343.977643 
L 228.742058 345.686982 
L 230.414386 369.36 
L 232.086713 322.424829 
L 233.759041 369.36 
L 235.431369 333.786805 
L 237.103696 339.483922 
L 238.776024 302.511066 
L 240.448352 312.554535 
L 242.120679 308.997997 
L 243.793007 305.007842 
L 245.465335 369.36 
L 247.137662 310.276096 
L 248.80999 331.132474 
L 250.482318 307.379999 
L 252.154645 310.186113 
L 253.826973 303.772527 
L 255.499301 299.895105 
L 257.171628 369.36 
L 258.843956 316.37525 
L 260.516284 336.318555 
L 262.188611 325.815324 
L 263.860939 338.645552 
L 265.533267 323.977632 
L 267.205594 311.337217 
L 268.877922 369.36 
L 270.55025 338.3464 
L 272.222577 349.442162 
L 275.567233 326.901233 
L 277.23956 319.743673 
L 278.911888 313.445198 
L 280.584216 369.36 
L 282.256543 335.320932 
L 283.928871 347.672382 
L 285.601199 329.640793 
L 287.273526 326.806835 
L 288.945854 319.23841 
L 290.618182 310.396979 
L 292.290509 369.36 
L 293.962837 329.849282 
L 295.635165 329.113797 
L 297.307493 317.36846 
L 298.97982 302.573205 
L 300.652148 300.051302 
L 302.324476 285.794248 
L 303.996803 369.36 
L 305.669131 303.115481 
L 307.341459 320.21532 
L 309.013786 304.558605 
L 310.686114 312.372192 
L 312.358442 277.330746 
L 314.030769 277.446536 
L 315.703097 369.36 
L 317.375425 314.52839 
L 319.047752 312.198678 
L 320.72008 275.76572 
L 322.392408 253.314774 
L 325.737063 180.557857 
L 327.409391 369.36 
L 329.081718 238.622066 
L 330.754046 241.924614 
L 332.426374 215.121204 
L 334.098701 235.857718 
L 335.771029 182.160234 
L 337.443357 160.170748 
L 339.115684 369.36 
L 340.788012 203.357869 
L 342.46034 251.203058 
L 344.132667 165.31778 
L 345.804995 163.329664 
L 347.477323 133.064791 
L 349.14965 107.132349 
L 350.821978 369.36 
L 352.494306 218.930374 
L 354.166633 211.942255 
L 355.838961 66.96 
L 357.511289 133.713348 
L 359.183616 124.742545 
L 360.855944 110.362571 
L 362.528272 369.36 
L 364.200599 198.526967 
L 365.872927 236.948041 
L 367.545255 369.36 
L 369.217582 154.30521 
L 370.88991 120.281083 
L 372.562238 115.12726 
L 374.234565 369.36 
L 375.906893 369.36 
L 377.579221 181.529674 
L 379.251548 120.19042 
L 380.923876 96.607385 
L 382.596204 97.151698 
L 384.268531 69.858304 
L 385.940859 369.36 
L 387.613187 175.240027 
L 389.285514 234.490315 
L 390.957842 174.862098 
L 392.63017 142.035933 
L 394.302498 142.816579 
L 395.974825 138.844081 
L 397.647153 369.36 
L 399.319481 234.752115 
L 400.991808 238.882168 
L 402.664136 218.931393 
L 404.336464 175.422709 
L 406.008791 175.297073 
L 407.681119 176.762269 
L 409.353447 369.36 
L 411.025774 222.002362 
L 412.698102 237.276734 
L 414.37043 155.382291 
L 416.042757 132.632872 
L 417.715085 146.514374 
L 419.387413 143.720145 
L 421.05974 369.36 
L 422.732068 207.222388 
L 424.404396 240.346685 
L 426.076723 248.350085 
L 427.749051 263.850603 
L 429.421379 182.600982 
L 431.093706 182.235956 
L 432.766034 369.36 
L 434.438362 242.996601 
L 436.110689 263.342963 
L 437.783017 240.297109 
L 439.455345 227.063485 
L 441.127672 202.777564 
L 442.8 215.490644 
L 444.472328 369.36 
L 446.144655 266.494068 
L 447.816983 279.869288 
L 449.489311 259.640074 
L 451.161638 264.78439 
L 452.833966 249.906622 
L 454.506294 258.324284 
L 456.178621 369.36 
L 457.850949 311.646895 
L 459.523277 305.914124 
L 461.195604 317.91447 
L 462.867932 295.49748 
L 464.54026 300.580674 
L 466.212587 308.305636 
L 467.884915 369.36 
L 469.557243 346.862534 
L 471.22957 369.36 
L 472.901898 337.736892 
L 474.574226 342.546742 
L 477.918881 325.181707 
L 479.591209 369.36 
L 481.263536 347.500905 
L 482.935864 349.173231 
L 484.608192 348.459479 
L 486.280519 336.750474 
L 487.952847 343.948101 
L 489.625175 338.663888 
L 491.297502 369.36 
L 492.96983 362.069673 
L 494.642158 353.704643 
L 496.314486 355.127394 
L 497.986813 352.056085 
L 499.659141 349.365082 
L 501.331469 366.29718 
L 503.003796 369.36 
L 504.676124 345.154553 
L 506.348452 348.354895 
L 508.020779 356.091741 
L 509.693107 362.399045 
L 511.365435 357.886309 
L 513.037762 361.925361 
L 514.71009 369.36 
L 516.382418 366.302273 
L 518.054745 366.034022 
L 519.727073 368.045908 
L 521.399401 365.662205 
L 523.071728 359.14777 
L 524.744056 367.062885 
L 526.416384 369.36 
L 528.088711 367.784447 
L 529.761039 368.29039 
L 531.433367 368.213989 
L 533.105694 368.380373 
L 534.778022 364.018741 
L 536.45035 363.755583 
L 538.122677 369.36 
L 539.795005 368.449983 
L 541.467333 368.938947 
L 543.13966 367.556943 
L 544.811988 367.441493 
L 546.484316 367.889711 
L 548.156643 368.166451 
L 549.828971 369.36 
L 551.501299 367.531476 
L 553.173626 368.585127 
L 554.845954 366.821459 
L 556.518282 364.248961 
L 558.190609 368.242852 
L 559.862937 369.36 
L 563.207592 369.36 
L 564.87992 368.888013 
L 566.552248 366.779353 
L 568.224575 366.259828 
L 569.896903 366.898199 
L 571.569231 364.904989 
L 573.241558 369.36 
L 574.913886 369.000068 
L 576.586214 366.952528 
L 578.258541 368.310763 
L 579.930869 366.587503 
L 581.603197 367.33623 
L 583.275524 366.378674 
L 584.947852 369.36 
L 586.62018 369.105331 
L 588.292507 368.711443 
L 589.964835 367.09005 
L 591.637163 364.972901 
L 593.309491 367.981391 
L 594.981818 366.258131 
L 596.654146 369.36 
L 599.998801 369.203803 
L 601.671129 368.270016 
L 603.343457 368.05949 
L 605.015784 369.047606 
L 606.688112 368.497521 
L 608.36044 369.36 
L 610.032767 369.332835 
L 611.705095 368.473752 
L 613.377423 369.105331 
L 615.04975 368.794635 
L 616.722078 369.049304 
L 618.394406 368.599388 
L 620.066733 369.36 
L 621.739061 369.36 
L 623.411389 369.15966 
L 625.083716 369.36 
L 626.756044 369.36 
L 628.428372 369.163056 
L 630.100699 369.132496 
L 631.773027 369.36 
L 638.462338 369.241154 
L 641.806993 369.04421 
L 643.479321 369.36 
L 645.151648 369.36 
L 646.823976 369.180034 
L 648.496304 369.36 
L 670.236563 369.36 
L 671.908891 369.067979 
L 673.581219 368.962716 
L 675.253546 369.112122 
L 676.925874 368.758981 
L 678.598202 369.36 
L 681.942857 369.36 
L 683.615185 368.901596 
L 685.287512 369.227572 
L 686.95984 369.132496 
L 688.632168 368.904991 
L 690.304496 369.36 
L 693.649151 369.36 
L 695.321479 369.242852 
L 696.993806 368.908387 
L 698.666134 369.335552 
L 700.338462 369.271715 
L 703.683117 369.36 
L 717.061738 369.36 
L 718.734066 369.086995 
L 722.078721 369.21399 
L 723.751049 369.36 
L 725.423377 369.36 
L 727.095704 369.065263 
L 728.768032 369.356604 
L 730.44036 369.071375 
L 732.112687 369.36 
L 733.785015 369.346418 
L 735.457343 369.074771 
L 737.12967 369.36 
L 738.801998 369.115518 
L 740.474326 369.36 
L 743.818981 369.24455 
L 745.491309 369.36 
L 747.163636 369.042513 
L 747.163636 369.042513 
" clip-path="url(#p62d6027390)" style="fill: none; stroke: #1f77b4; stroke-width: 2; stroke-linecap: square"/>
   </g>
   <g id="line2d_14">
    <path d="M 138.436364 369.36 
L 218.708092 369.36 
L 220.38042 364.037077 
L 222.052747 367.986824 
L 223.725075 361.074087 
L 225.397403 368.166111 
L 227.06973 360.919927 
L 228.742058 363.423494 
L 230.414386 358.134187 
L 232.086713 348.856084 
L 233.759041 369.36 
L 235.431369 354.643523 
L 237.103696 360.692423 
L 238.776024 357.045901 
L 240.448352 350.958292 
L 242.120679 335.031288 
L 243.793007 343.803449 
L 245.465335 369.36 
L 247.137662 350.738937 
L 248.80999 364.901593 
L 250.482318 356.603456 
L 252.154645 357.666954 
L 253.826973 346.055742 
L 255.499301 346.606167 
L 257.171628 369.36 
L 258.843956 351.799718 
L 260.516284 369.36 
L 262.188611 361.153544 
L 263.860939 359.144375 
L 265.533267 352.995305 
L 267.205594 351.339956 
L 268.877922 369.36 
L 270.55025 352.618055 
L 272.222577 369.36 
L 273.894905 357.154221 
L 275.567233 361.897177 
L 277.23956 354.263217 
L 278.911888 349.790889 
L 280.584216 369.36 
L 282.256543 353.841146 
L 283.928871 365.443529 
L 285.601199 355.76203 
L 287.273526 355.208888 
L 288.945854 345.602092 
L 290.618182 339.675433 
L 292.290509 369.36 
L 293.962837 339.290713 
L 295.635165 351.211603 
L 297.307493 341.006843 
L 298.97982 331.99733 
L 300.652148 320.594608 
L 302.324476 310.716164 
L 303.996803 369.36 
L 305.669131 317.319563 
L 307.341459 330.613968 
L 309.013786 309.74944 
L 310.686114 309.71854 
L 312.358442 293.869295 
L 314.030769 282.985418 
L 315.703097 366.218063 
L 317.375425 287.579648 
L 319.047752 300.916498 
L 320.72008 286.627186 
L 322.392408 276.630576 
L 324.064735 261.793556 
L 325.737063 240.063832 
L 327.409391 348.38138 
L 329.081718 254.997287 
L 330.754046 281.192548 
L 332.426374 254.876404 
L 334.098701 244.651611 
L 335.771029 214.093699 
L 337.443357 203.636987 
L 339.115684 369.36 
L 340.788012 234.115102 
L 342.46034 242.573172 
L 344.132667 206.548364 
L 347.477323 174.976869 
L 349.14965 187.833243 
L 350.821978 369.36 
L 352.494306 197.482824 
L 354.166633 221.333431 
L 355.838961 195.145301 
L 357.511289 176.240707 
L 359.183616 165.561583 
L 360.855944 188.977556 
L 362.528272 369.36 
L 364.200599 201.908633 
L 365.872927 242.386414 
L 367.545255 183.547332 
L 369.217582 236.551776 
L 370.88991 209.684868 
L 372.562238 179.603697 
L 374.234565 301.783392 
L 375.906893 147.397566 
L 377.579221 195.672296 
L 379.251548 331.069316 
L 380.923876 202.180619 
L 382.596204 174.453269 
L 384.268531 196.313723 
L 385.940859 369.36 
L 387.613187 204.679772 
L 389.285514 236.326649 
L 390.957842 219.313396 
L 392.63017 248.644482 
L 394.302498 186.39589 
L 395.974825 216.54803 
L 397.647153 369.36 
L 399.319481 219.460765 
L 400.991808 264.155866 
L 402.664136 226.29778 
L 404.336464 250.472667 
L 406.008791 199.482146 
L 407.681119 216.574855 
L 409.353447 369.36 
L 411.025774 235.151096 
L 412.698102 262.574202 
L 414.37043 225.330378 
L 417.715085 204.508634 
L 419.387413 213.426805 
L 421.05974 369.36 
L 422.732068 221.586403 
L 424.404396 261.653658 
L 426.076723 223.725283 
L 427.749051 248.639049 
L 429.421379 214.764667 
L 431.093706 210.09879 
L 432.766034 369.36 
L 434.438362 247.873684 
L 436.110689 264.580315 
L 437.783017 223.536489 
L 439.455345 240.191506 
L 441.127672 215.076382 
L 442.8 216.469252 
L 444.472328 369.36 
L 446.144655 256.532093 
L 447.816983 267.641437 
L 449.489311 247.636332 
L 451.161638 247.043802 
L 452.833966 250.301869 
L 454.506294 237.340911 
L 456.178621 369.36 
L 457.850949 275.413258 
L 459.523277 286.544673 
L 461.195604 287.348069 
L 462.867932 282.797303 
L 464.54026 289.110719 
L 466.212587 282.434654 
L 467.884915 369.36 
L 469.557243 302.619385 
L 471.22957 317.180005 
L 472.901898 310.167777 
L 474.574226 315.823128 
L 476.246553 317.340276 
L 477.918881 316.981363 
L 479.591209 369.36 
L 481.263536 332.756244 
L 482.935864 343.147422 
L 484.608192 340.254041 
L 486.280519 342.561343 
L 487.952847 341.388507 
L 489.625175 343.781717 
L 491.297502 369.36 
L 492.96983 367.615347 
L 494.642158 369.36 
L 496.314486 368.840815 
L 497.986813 369.36 
L 554.845954 369.36 
L 556.518282 359.808212 
L 558.190609 369.36 
L 568.224575 369.36 
L 569.896903 351.089022 
L 571.569231 369.36 
L 747.163636 369.36 
L 747.163636 369.36 
" clip-path="url(#p62d6027390)" style="fill: none; stroke: #ff7f0e; stroke-width: 2; stroke-linecap: square"/>
   </g>
   <g id="patch_3">
    <path d="M 108 384.48 
L 108 51.84 
" style="fill: none; stroke: #000000; stroke-width: 0.8; stroke-linejoin: miter; stroke-linecap: square"/>
   </g>
   <g id="patch_4">
    <path d="M 777.6 384.48 
L 777.6 51.84 
" style="fill: none; stroke: #000000; stroke-width: 0.8; stroke-linejoin: miter; stroke-linecap: square"/>
   </g>
   <g id="patch_5">
    <path d="M 108 384.48 
L 777.6 384.48 
" style="fill: none; stroke: #000000; stroke-width: 0.8; stroke-linejoin: miter; stroke-linecap: square"/>
   </g>
   <g id="patch_6">
    <path d="M 108 51.84 
L 777.6 51.84 
" style="fill: none; stroke: #000000; stroke-width: 0.8; stroke-linejoin: miter; stroke-linecap: square"/>
   </g>
   <g id="text_15">
    <!-- Forecast Plot of Neural Prophet Model -->
    <g transform="translate(329.811563 45.84) scale(0.12 -0.12)">
     <defs>
      <path id="DejaVuSans-46" d="M 628 4666 
L 3309 4666 
L 3309 4134 
L 1259 4134 
L 1259 2759 
L 3109 2759 
L 3109 2228 
L 1259 2228 
L 1259 0 
L 628 0 
L 628 4666 
z
" transform="scale(0.015625)"/>
      <path id="DejaVuSans-6f" d="M 1959 3097 
Q 1497 3097 1228 2736 
Q 959 2375 959 1747 
Q 959 1119 1226 758 
Q 1494 397 1959 397 
Q 2419 397 2687 759 
Q 2956 1122 2956 1747 
Q 2956 2369 2687 2733 
Q 2419 3097 1959 3097 
z
M 1959 3584 
Q 2709 3584 3137 3096 
Q 3566 2609 3566 1747 
Q 3566 888 3137 398 
Q 2709 -91 1959 -91 
Q 1206 -91 779 398 
Q 353 888 353 1747 
Q 353 2609 779 3096 
Q 1206 3584 1959 3584 
z
" transform="scale(0.015625)"/>
      <path id="DejaVuSans-72" d="M 2631 2963 
Q 2534 3019 2420 3045 
Q 2306 3072 2169 3072 
Q 1681 3072 1420 2755 
Q 1159 2438 1159 1844 
L 1159 0 
L 581 0 
L 581 3500 
L 1159 3500 
L 1159 2956 
Q 1341 3275 1631 3429 
Q 1922 3584 2338 3584 
Q 2397 3584 2469 3576 
Q 2541 3569 2628 3553 
L 2631 2963 
z
" transform="scale(0.015625)"/>
      <path id="DejaVuSans-63" d="M 3122 3366 
L 3122 2828 
Q 2878 2963 2633 3030 
Q 2388 3097 2138 3097 
Q 1578 3097 1268 2742 
Q 959 2388 959 1747 
Q 959 1106 1268 751 
Q 1578 397 2138 397 
Q 2388 397 2633 464 
Q 2878 531 3122 666 
L 3122 134 
Q 2881 22 2623 -34 
Q 2366 -91 2075 -91 
Q 1284 -91 818 406 
Q 353 903 353 1747 
Q 353 2603 823 3093 
Q 1294 3584 2113 3584 
Q 2378 3584 2631 3529 
Q 2884 3475 3122 3366 
z
" transform="scale(0.015625)"/>
      <path id="DejaVuSans-73" d="M 2834 3397 
L 2834 2853 
Q 2591 2978 2328 3040 
Q 2066 3103 1784 3103 
Q 1356 3103 1142 2972 
Q 928 2841 928 2578 
Q 928 2378 1081 2264 
Q 1234 2150 1697 2047 
L 1894 2003 
Q 2506 1872 2764 1633 
Q 3022 1394 3022 966 
Q 3022 478 2636 193 
Q 2250 -91 1575 -91 
Q 1294 -91 989 -36 
Q 684 19 347 128 
L 347 722 
Q 666 556 975 473 
Q 1284 391 1588 391 
Q 1994 391 2212 530 
Q 2431 669 2431 922 
Q 2431 1156 2273 1281 
Q 2116 1406 1581 1522 
L 1381 1569 
Q 847 1681 609 1914 
Q 372 2147 372 2553 
Q 372 3047 722 3315 
Q 1072 3584 1716 3584 
Q 2034 3584 2315 3537 
Q 2597 3491 2834 3397 
z
" transform="scale(0.015625)"/>
      <path id="DejaVuSans-20" transform="scale(0.015625)"/>
      <path id="DejaVuSans-50" d="M 1259 4147 
L 1259 2394 
L 2053 2394 
Q 2494 2394 2734 2622 
Q 2975 2850 2975 3272 
Q 2975 3691 2734 3919 
Q 2494 4147 2053 4147 
L 1259 4147 
z
M 628 4666 
L 2053 4666 
Q 2838 4666 3239 4311 
Q 3641 3956 3641 3272 
Q 3641 2581 3239 2228 
Q 2838 1875 2053 1875 
L 1259 1875 
L 1259 0 
L 628 0 
L 628 4666 
z
" transform="scale(0.015625)"/>
      <path id="DejaVuSans-66" d="M 2375 4863 
L 2375 4384 
L 1825 4384 
Q 1516 4384 1395 4259 
Q 1275 4134 1275 3809 
L 1275 3500 
L 2222 3500 
L 2222 3053 
L 1275 3053 
L 1275 0 
L 697 0 
L 697 3053 
L 147 3053 
L 147 3500 
L 697 3500 
L 697 3744 
Q 697 4328 969 4595 
Q 1241 4863 1831 4863 
L 2375 4863 
z
" transform="scale(0.015625)"/>
      <path id="DejaVuSans-4e" d="M 628 4666 
L 1478 4666 
L 3547 763 
L 3547 4666 
L 4159 4666 
L 4159 0 
L 3309 0 
L 1241 3903 
L 1241 0 
L 628 0 
L 628 4666 
z
" transform="scale(0.015625)"/>
      <path id="DejaVuSans-70" d="M 1159 525 
L 1159 -1331 
L 581 -1331 
L 581 3500 
L 1159 3500 
L 1159 2969 
Q 1341 3281 1617 3432 
Q 1894 3584 2278 3584 
Q 2916 3584 3314 3078 
Q 3713 2572 3713 1747 
Q 3713 922 3314 415 
Q 2916 -91 2278 -91 
Q 1894 -91 1617 61 
Q 1341 213 1159 525 
z
M 3116 1747 
Q 3116 2381 2855 2742 
Q 2594 3103 2138 3103 
Q 1681 3103 1420 2742 
Q 1159 2381 1159 1747 
Q 1159 1113 1420 752 
Q 1681 391 2138 391 
Q 2594 391 2855 752 
Q 3116 1113 3116 1747 
z
" transform="scale(0.015625)"/>
      <path id="DejaVuSans-68" d="M 3513 2113 
L 3513 0 
L 2938 0 
L 2938 2094 
Q 2938 2591 2744 2837 
Q 2550 3084 2163 3084 
Q 1697 3084 1428 2787 
Q 1159 2491 1159 1978 
L 1159 0 
L 581 0 
L 581 4863 
L 1159 4863 
L 1159 2956 
Q 1366 3272 1645 3428 
Q 1925 3584 2291 3584 
Q 2894 3584 3203 3211 
Q 3513 2838 3513 2113 
z
" transform="scale(0.015625)"/>
      <path id="DejaVuSans-4d" d="M 628 4666 
L 1569 4666 
L 2759 1491 
L 3956 4666 
L 4897 4666 
L 4897 0 
L 4281 0 
L 4281 4097 
L 3078 897 
L 2444 897 
L 1241 4097 
L 1241 0 
L 628 0 
L 628 4666 
z
" transform="scale(0.015625)"/>
      <path id="DejaVuSans-64" d="M 2906 2969 
L 2906 4863 
L 3481 4863 
L 3481 0 
L 2906 0 
L 2906 525 
Q 2725 213 2448 61 
Q 2172 -91 1784 -91 
Q 1150 -91 751 415 
Q 353 922 353 1747 
Q 353 2572 751 3078 
Q 1150 3584 1784 3584 
Q 2172 3584 2448 3432 
Q 2725 3281 2906 2969 
z
M 947 1747 
Q 947 1113 1208 752 
Q 1469 391 1925 391 
Q 2381 391 2643 752 
Q 2906 1113 2906 1747 
Q 2906 2381 2643 2742 
Q 2381 3103 1925 3103 
Q 1469 3103 1208 2742 
Q 947 2381 947 1747 
z
" transform="scale(0.015625)"/>
     </defs>
     <use xlink:href="#DejaVuSans-46"/>
     <use xlink:href="#DejaVuSans-6f" x="53.894531"/>
     <use xlink:href="#DejaVuSans-72" x="115.076172"/>
     <use xlink:href="#DejaVuSans-65" x="153.939453"/>
     <use xlink:href="#DejaVuSans-63" x="215.462891"/>
     <use xlink:href="#DejaVuSans-61" x="270.443359"/>
     <use xlink:href="#DejaVuSans-73" x="331.722656"/>
     <use xlink:href="#DejaVuSans-74" x="383.822266"/>
     <use xlink:href="#DejaVuSans-20" x="423.03125"/>
     <use xlink:href="#DejaVuSans-50" x="454.818359"/>
     <use xlink:href="#DejaVuSans-6c" x="515.121094"/>
     <use xlink:href="#DejaVuSans-6f" x="542.904297"/>
     <use xlink:href="#DejaVuSans-74" x="604.085938"/>
     <use xlink:href="#DejaVuSans-20" x="643.294922"/>
     <use xlink:href="#DejaVuSans-6f" x="675.082031"/>
     <use xlink:href="#DejaVuSans-66" x="736.263672"/>
     <use xlink:href="#DejaVuSans-20" x="771.46875"/>
     <use xlink:href="#DejaVuSans-4e" x="803.255859"/>
     <use xlink:href="#DejaVuSans-65" x="878.060547"/>
     <use xlink:href="#DejaVuSans-75" x="939.583984"/>
     <use xlink:href="#DejaVuSans-72" x="1002.962891"/>
     <use xlink:href="#DejaVuSans-61" x="1044.076172"/>
     <use xlink:href="#DejaVuSans-6c" x="1105.355469"/>
     <use xlink:href="#DejaVuSans-20" x="1133.138672"/>
     <use xlink:href="#DejaVuSans-50" x="1164.925781"/>
     <use xlink:href="#DejaVuSans-72" x="1223.478516"/>
     <use xlink:href="#DejaVuSans-6f" x="1262.341797"/>
     <use xlink:href="#DejaVuSans-70" x="1323.523438"/>
     <use xlink:href="#DejaVuSans-68" x="1387"/>
     <use xlink:href="#DejaVuSans-65" x="1450.378906"/>
     <use xlink:href="#DejaVuSans-74" x="1511.902344"/>
     <use xlink:href="#DejaVuSans-20" x="1551.111328"/>
     <use xlink:href="#DejaVuSans-4d" x="1582.898438"/>
     <use xlink:href="#DejaVuSans-6f" x="1669.177734"/>
     <use xlink:href="#DejaVuSans-64" x="1730.359375"/>
     <use xlink:href="#DejaVuSans-65" x="1793.835938"/>
     <use xlink:href="#DejaVuSans-6c" x="1855.359375"/>
    </g>
   </g>
   <g id="legend_1">
    <g id="patch_7">
     <path d="M 602.510937 89.19625 
L 770.6 89.19625 
Q 772.6 89.19625 772.6 87.19625 
L 772.6 58.84 
Q 772.6 56.84 770.6 56.84 
L 602.510937 56.84 
Q 600.510937 56.84 600.510937 58.84 
L 600.510937 87.19625 
Q 600.510937 89.19625 602.510937 89.19625 
z
" style="fill: #ffffff; opacity: 0.8; stroke: #cccccc; stroke-linejoin: miter"/>
    </g>
    <g id="line2d_15">
     <path d="M 604.510937 64.938437 
L 614.510937 64.938437 
L 624.510937 64.938437 
" style="fill: none; stroke: #1f77b4; stroke-width: 2; stroke-linecap: square"/>
    </g>
    <g id="text_16">
     <!-- Actual -->
     <g transform="translate(632.510937 68.438437) scale(0.1 -0.1)">
      <defs>
       <path id="DejaVuSans-41" d="M 2188 4044 
L 1331 1722 
L 3047 1722 
L 2188 4044 
z
M 1831 4666 
L 2547 4666 
L 4325 0 
L 3669 0 
L 3244 1197 
L 1141 1197 
L 716 0 
L 50 0 
L 1831 4666 
z
" transform="scale(0.015625)"/>
      </defs>
      <use xlink:href="#DejaVuSans-41"/>
      <use xlink:href="#DejaVuSans-63" x="66.658203"/>
      <use xlink:href="#DejaVuSans-74" x="121.638672"/>
      <use xlink:href="#DejaVuSans-75" x="160.847656"/>
      <use xlink:href="#DejaVuSans-61" x="224.226562"/>
      <use xlink:href="#DejaVuSans-6c" x="285.505859"/>
     </g>
    </g>
    <g id="line2d_16">
     <path d="M 604.510937 79.616562 
L 614.510937 79.616562 
L 624.510937 79.616562 
" style="fill: none; stroke: #ff7f0e; stroke-width: 2; stroke-linecap: square"/>
    </g>
    <g id="text_17">
     <!-- Neural Prophet's prediction -->
     <g transform="translate(632.510937 83.116562) scale(0.1 -0.1)">
      <defs>
       <path id="DejaVuSans-27" d="M 1147 4666 
L 1147 2931 
L 616 2931 
L 616 4666 
L 1147 4666 
z
" transform="scale(0.015625)"/>
       <path id="DejaVuSans-69" d="M 603 3500 
L 1178 3500 
L 1178 0 
L 603 0 
L 603 3500 
z
M 603 4863 
L 1178 4863 
L 1178 4134 
L 603 4134 
L 603 4863 
z
" transform="scale(0.015625)"/>
       <path id="DejaVuSans-6e" d="M 3513 2113 
L 3513 0 
L 2938 0 
L 2938 2094 
Q 2938 2591 2744 2837 
Q 2550 3084 2163 3084 
Q 1697 3084 1428 2787 
Q 1159 2491 1159 1978 
L 1159 0 
L 581 0 
L 581 3500 
L 1159 3500 
L 1159 2956 
Q 1366 3272 1645 3428 
Q 1925 3584 2291 3584 
Q 2894 3584 3203 3211 
Q 3513 2838 3513 2113 
z
" transform="scale(0.015625)"/>
      </defs>
      <use xlink:href="#DejaVuSans-4e"/>
      <use xlink:href="#DejaVuSans-65" x="74.804688"/>
      <use xlink:href="#DejaVuSans-75" x="136.328125"/>
      <use xlink:href="#DejaVuSans-72" x="199.707031"/>
      <use xlink:href="#DejaVuSans-61" x="240.820312"/>
      <use xlink:href="#DejaVuSans-6c" x="302.099609"/>
      <use xlink:href="#DejaVuSans-20" x="329.882812"/>
      <use xlink:href="#DejaVuSans-50" x="361.669922"/>
      <use xlink:href="#DejaVuSans-72" x="420.222656"/>
      <use xlink:href="#DejaVuSans-6f" x="459.085938"/>
      <use xlink:href="#DejaVuSans-70" x="520.267578"/>
      <use xlink:href="#DejaVuSans-68" x="583.744141"/>
      <use xlink:href="#DejaVuSans-65" x="647.123047"/>
      <use xlink:href="#DejaVuSans-74" x="708.646484"/>
      <use xlink:href="#DejaVuSans-27" x="747.855469"/>
      <use xlink:href="#DejaVuSans-73" x="775.345703"/>
      <use xlink:href="#DejaVuSans-20" x="827.445312"/>
      <use xlink:href="#DejaVuSans-70" x="859.232422"/>
      <use xlink:href="#DejaVuSans-72" x="922.708984"/>
      <use xlink:href="#DejaVuSans-65" x="961.572266"/>
      <use xlink:href="#DejaVuSans-64" x="1023.095703"/>
      <use xlink:href="#DejaVuSans-69" x="1086.572266"/>
      <use xlink:href="#DejaVuSans-63" x="1114.355469"/>
      <use xlink:href="#DejaVuSans-74" x="1169.335938"/>
      <use xlink:href="#DejaVuSans-69" x="1208.544922"/>
      <use xlink:href="#DejaVuSans-6f" x="1236.328125"/>
      <use xlink:href="#DejaVuSans-6e" x="1297.509766"/>
     </g>
    </g>
   </g>
  </g>
 </g>
 <defs>
  <clipPath id="p62d6027390">
   <rect x="108" y="51.84" width="669.6" height="332.64"/>
  </clipPath>
 </defs>
</svg>
